<?xml version="1.0" standalone="no"?>
 <!DOCTYPE svg PUBLIC "-//W3C//DTD SVG 1.1//EN" 
 "http://www.w3.org/Graphics/SVG/1.1/DTD/svg11.dtd"> 
<svg
  xmlns:svg="http://www.w3.org/2000/svg"
  xmlns="http://www.w3.org/2000/svg"
  xmlns:xlink="http://www.w3.org/1999/xlink"
  version="1.1"
  width="255.9050mm" height="106.9594mm" viewBox="0.0000 0.0000 255.9050 106.9594">
<title>SVG Image created as plate_outline-Edge_Cuts.svg date 2023/06/17 07:01:23 </title>
  <desc>Image generated by PCBNEW </desc>
<g style="fill:#000000; fill-opacity:1.0000;stroke:#000000; stroke-opacity:1.0000;
stroke-linecap:round; stroke-linejoin:round;"
 transform="translate(0 0) scale(1 1)">
</g>
<g style="fill:#000000; fill-opacity:0.0; 
stroke:#000000; stroke-width:0.0000; stroke-opacity:1; 
stroke-linecap:round; stroke-linejoin:round;">
</g>
<g style="fill:#000000; fill-opacity:0.0; 
stroke:#000000; stroke-width:0.1500; stroke-opacity:1; 
stroke-linecap:round; stroke-linejoin:round;">
<path d="M126.0329 0.0771
L103.5978 0.0771
" />
</g>
<g style="fill:#000000; fill-opacity:0.0; 
stroke:#000000; stroke-width:0.1000; stroke-opacity:1; 
stroke-linecap:round; stroke-linejoin:round;">
<path d="M72.5500 85.4421
L48.5500 85.4421
" />
</g>
<g style="fill:#000000; fill-opacity:0.0; 
stroke:#000000; stroke-width:0.1500; stroke-opacity:1; 
stroke-linecap:round; stroke-linejoin:round;">
<path d="M126.6278 38.7341
L126.6278 0.6471
" />
</g>
<g style="fill:#000000; fill-opacity:0.0; 
stroke:#000000; stroke-width:0.1000; stroke-opacity:1; 
stroke-linecap:round; stroke-linejoin:round;">
<path d="M135.4759 7.9150
L255.8755 7.9150
" />
<path d="M0.0500 6.4421
L96.2497 6.4421
" />
</g>
<g style="fill:#000000; fill-opacity:0.0; 
stroke:#000000; stroke-width:0.1500; stroke-opacity:1; 
stroke-linecap:round; stroke-linejoin:round;">
<path d="M103.5978 0.0771 A0.5433 0.5433 0.0 0 0 103.0079 0.6471" />
</g>
<g style="fill:#000000; fill-opacity:0.0; 
stroke:#000000; stroke-width:0.1000; stroke-opacity:1; 
stroke-linecap:round; stroke-linejoin:round;">
<path d="M120.4496 89.2224
L107.0500 105.4421
" />
<path d="M107.0500 105.4421
L72.5500 85.4421
" />
<path d="M255.8755 90.6954
L242.4759 106.9150
" />
<path d="M172.8756 68.4954
L135.4759 68.4954
" />
</g>
<g style="fill:#000000; fill-opacity:0.0; 
stroke:#000000; stroke-width:0.1500; stroke-opacity:1; 
stroke-linecap:round; stroke-linejoin:round;">
<path d="M103.0078 61.9571 A1.3151 1.3151 0.0 0 0 103.3979 62.6771" />
</g>
<g style="fill:#000000; fill-opacity:0.0; 
stroke:#000000; stroke-width:0.1000; stroke-opacity:1; 
stroke-linecap:round; stroke-linejoin:round;">
<path d="M242.4759 106.9150
L207.9759 86.9150
" />
<path d="M183.9759 86.9150
L172.8756 68.4954
" />
</g>
<g style="fill:#000000; fill-opacity:0.0; 
stroke:#000000; stroke-width:0.1500; stroke-opacity:1; 
stroke-linecap:round; stroke-linejoin:round;">
<path d="M125.6078 81.5171 A0.6130 0.6130 0.0 0 0 126.6278 81.0271" />
<path d="M103.0078 0.6471
L103.0078 61.9571
" />
</g>
<g style="fill:#000000; fill-opacity:0.0; 
stroke:#000000; stroke-width:0.1000; stroke-opacity:1; 
stroke-linecap:round; stroke-linejoin:round;">
<path d="M120.4496 89.2224
L96.2497 69.0224
" />
</g>
<g style="fill:#000000; fill-opacity:0.0; 
stroke:#000000; stroke-width:0.1500; stroke-opacity:1; 
stroke-linecap:round; stroke-linejoin:round;">
<path d="M126.6278 81.0271
L126.6278 38.7341
" />
</g>
<g style="fill:#000000; fill-opacity:0.0; 
stroke:#000000; stroke-width:0.1000; stroke-opacity:1; 
stroke-linecap:round; stroke-linejoin:round;">
<path d="M0.0500 67.0224
L0.0500 6.4421
" />
</g>
<g style="fill:#000000; fill-opacity:0.0; 
stroke:#000000; stroke-width:0.1500; stroke-opacity:1; 
stroke-linecap:round; stroke-linejoin:round;">
<path d="M103.3978 62.6771
L125.6078 81.5171
" />
</g>
<g style="fill:#000000; fill-opacity:0.0; 
stroke:#000000; stroke-width:0.1000; stroke-opacity:1; 
stroke-linecap:round; stroke-linejoin:round;">
<path d="M48.5500 85.4421
L37.4496 67.0224
" />
<path d="M96.2497 6.4421
L96.2497 69.0224
" />
<path d="M135.4759 68.4954
L135.4759 7.9150
" />
<path d="M255.8755 7.9150
L255.8755 90.6954
" />
<path d="M207.9759 86.9150
L183.9759 86.9150
" />
<path d="M37.4496 67.0224
L0.0500 67.0224
" />
</g>
<g style="fill:#000000; fill-opacity:0.0; 
stroke:#000000; stroke-width:0.1500; stroke-opacity:1; 
stroke-linecap:round; stroke-linejoin:round;">
<path d="M126.6279 0.6471 A0.5479 0.5479 0.0 0 0 126.0329 0.0771" />
</g>
<g style="fill:#000000; fill-opacity:0.0; 
stroke:#000000; stroke-width:0.1200; stroke-opacity:1; 
stroke-linecap:round; stroke-linejoin:round;">
<path d="M59.9003 9.4341
L74.5003 9.4341
" />
<path d="M74.5003 9.4341
L74.5003 23.4341
" />
<path d="M74.5003 23.4341
L59.9003 23.4341
" />
<path d="M59.9003 23.4341
L59.9003 9.4341
" />
<path d="M21.8003 47.5341
L36.4003 47.5341
" />
<path d="M36.4003 47.5341
L36.4003 61.5341
" />
<path d="M36.4003 61.5341
L21.8003 61.5341
" />
<path d="M21.8003 61.5341
L21.8003 47.5341
" />
<path d="M21.8003 9.4341
L36.4003 9.4341
" />
<path d="M36.4003 9.4341
L36.4003 23.4341
" />
<path d="M36.4003 23.4341
L21.8003 23.4341
" />
<path d="M21.8003 23.4341
L21.8003 9.4341
" />
<path d="M2.7503 9.4341
L17.3503 9.4341
" />
<path d="M17.3503 9.4341
L17.3503 23.4341
" />
<path d="M17.3503 23.4341
L2.7503 23.4341
" />
<path d="M2.7503 23.4341
L2.7503 9.4341
" />
<path d="M55.1379 68.4771
L69.7378 68.4771
" />
<path d="M69.7378 68.4771
L69.7378 82.4771
" />
<path d="M69.7378 82.4771
L55.1379 82.4771
" />
<path d="M55.1379 82.4771
L55.1379 68.4771
" />
<circle cx="49.5020" cy="79.1241" r="1.1500" /> 
<circle cx="212.1529" cy="27.4221" r="1.1500" /> 
<circle cx="184.9278" cy="80.5971" r="1.1500" /> 
<path d="M40.8503 28.4841
L55.4503 28.4841
" />
<path d="M55.4503 28.4841
L55.4503 42.4841
" />
<path d="M55.4503 42.4841
L40.8503 42.4841
" />
<path d="M40.8503 42.4841
L40.8503 28.4841
" />
<circle cx="105.9472" cy="60.8154" r="1.1500" /> 
<path d="M40.8503 9.4341
L55.4503 9.4341
" />
<path d="M55.4503 9.4341
L55.4503 23.4341
" />
<path d="M55.4503 23.4341
L40.8503 23.4341
" />
<path d="M40.8503 23.4341
L40.8503 9.4341
" />
<path d="M78.9503 9.4341
L93.5503 9.4341
" />
<path d="M93.5503 9.4341
L93.5503 23.4341
" />
<path d="M93.5503 23.4341
L78.9503 23.4341
" />
<path d="M78.9503 23.4341
L78.9503 9.4341
" />
<path d="M21.8003 28.4841
L36.4003 28.4841
" />
<path d="M36.4003 28.4841
L36.4003 42.4841
" />
<path d="M36.4003 42.4841
L21.8003 42.4841
" />
<path d="M21.8003 42.4841
L21.8003 28.4841
" />
<circle cx="99.1020" cy="78.7241" r="1.1500" /> 
<circle cx="155.0028" cy="46.4721" r="1.1500" /> 
<circle cx="155.0028" cy="27.4221" r="1.1500" /> 
<circle cx="234.5279" cy="80.1971" r="1.1500" /> 
<circle cx="19.5770" cy="44.9991" r="1.1500" /> 
<path d="M40.8503 47.5341
L55.4503 47.5341
" />
<path d="M55.4503 47.5341
L55.4503 61.5341
" />
<path d="M55.4503 61.5341
L40.8503 61.5341
" />
<path d="M40.8503 61.5341
L40.8503 47.5341
" />
<circle cx="76.7270" cy="25.9491" r="1.1500" /> 
<path d="M2.7503 47.5341
L17.3503 47.5341
" />
<path d="M17.3503 47.5341
L17.3503 61.5341
" />
<path d="M17.3503 61.5341
L2.7503 61.5341
" />
<path d="M2.7503 61.5341
L2.7503 47.5341
" />
<path d="M2.7503 28.4841
L17.3503 28.4841
" />
<path d="M17.3503 28.4841
L17.3503 42.4841
" />
<path d="M17.3503 42.4841
L2.7503 42.4841
" />
<path d="M2.7503 42.4841
L2.7503 28.4841
" />
<path d="M78.9503 47.5341
L93.5503 47.5341
" />
<path d="M93.5503 47.5341
L93.5503 61.5341
" />
<path d="M93.5503 61.5341
L78.9503 61.5341
" />
<path d="M78.9503 61.5341
L78.9503 47.5341
" />
<path d="M78.9503 28.4841
L93.5503 28.4841
" />
<path d="M93.5503 28.4841
L93.5503 42.4841
" />
<path d="M93.5503 42.4841
L78.9503 42.4841
" />
<path d="M78.9503 42.4841
L78.9503 28.4841
" />
<circle cx="123.2472" cy="75.2154" r="1.1500" /> 
<path d="M59.9003 28.4841
L74.5003 28.4841
" />
<path d="M74.5003 28.4841
L74.5003 42.4841
" />
<path d="M74.5003 42.4841
L59.9003 42.4841
" />
<path d="M59.9003 42.4841
L59.9003 28.4841
" />
<path d="M59.9003 47.5341
L74.5003 47.5341
" />
<path d="M74.5003 47.5341
L74.5003 61.5341
" />
<path d="M74.5003 61.5341
L59.9003 61.5341
" />
<path d="M59.9003 61.5341
L59.9003 47.5341
" />
<path d="M81.1722 70.3525
L94.8917 75.3460
" />
<path d="M94.8917 75.3460
L90.1035 88.5017
" />
<path d="M90.1035 88.5017
L76.3840 83.5082
" />
<path d="M76.3840 83.5082
L81.1722 70.3525
" />
<circle cx="19.5770" cy="25.9491" r="1.1500" /> 
<path d="M104.1452 80.9724
L115.3295 90.3571
" />
<path d="M115.3295 90.3571
L106.3305 101.0817
" />
<path d="M106.3305 101.0817
L95.1462 91.6970
" />
<path d="M95.1462 91.6970
L104.1452 80.9724
" />
<g >
</g>
<g >
</g>
<g >
</g>
<g >
</g>
<g >
</g>
<g >
</g>
<g >
</g>
<g >
</g>
<g >
</g>
<g >
</g>
<g >
</g>
<g >
</g>
<g >
</g>
<g >
</g>
<g >
</g>
<g >
</g>
<g >
</g>
<g >
</g>
<g >
</g>
<g >
</g>
<g >
</g>
<g >
</g>
<g >
</g>
<g >
</g>
<g >
</g>
<g >
</g>
<g >
</g>
<g >
</g>
<g >
</g>
<g >
</g>
<g >
</g>
<g >
</g>
<g >
</g>
</g> 
</svg>
